<mxfile host="app.diagrams.net" modified="2024-02-04T16:00:23.934Z" agent="Mozilla/5.0 (Windows NT 10.0; Win64; x64) AppleWebKit/537.36 (KHTML, like Gecko) Chrome/121.0.0.0 Safari/537.36 Edg/121.0.0.0" etag="__elhrlwxyeBTCfVtjNx" version="23.1.1" type="device">
  <diagram name="Page-1" id="rJj9uqaMPBLa1lETlyhD">
    <mxGraphModel dx="825" dy="473" grid="1" gridSize="10" guides="1" tooltips="1" connect="1" arrows="1" fold="1" page="1" pageScale="1" pageWidth="827" pageHeight="1169" background="#ffffff" math="0" shadow="0">
      <root>
        <mxCell id="0" />
        <mxCell id="1" parent="0" />
        <mxCell id="IEjJDpaYbgT3tHdpPvTB-1" value="&lt;font style=&quot;font-size: 16px;&quot;&gt;List&lt;/font&gt;" style="swimlane;fontStyle=1;align=center;verticalAlign=top;childLayout=stackLayout;horizontal=1;startSize=26;horizontalStack=0;resizeParent=1;resizeParentMax=0;resizeLast=0;collapsible=1;marginBottom=0;whiteSpace=wrap;html=1;" vertex="1" parent="1">
          <mxGeometry x="74" y="40" width="340" height="270" as="geometry" />
        </mxCell>
        <mxCell id="IEjJDpaYbgT3tHdpPvTB-2" value="&lt;font style=&quot;font-size: 19px;&quot;&gt;- size: int&lt;/font&gt;" style="text;strokeColor=none;fillColor=none;align=left;verticalAlign=top;spacingLeft=4;spacingRight=4;overflow=hidden;rotatable=0;points=[[0,0.5],[1,0.5]];portConstraint=eastwest;whiteSpace=wrap;html=1;" vertex="1" parent="IEjJDpaYbgT3tHdpPvTB-1">
          <mxGeometry y="26" width="340" height="26" as="geometry" />
        </mxCell>
        <mxCell id="IEjJDpaYbgT3tHdpPvTB-3" value="" style="line;strokeWidth=1;fillColor=none;align=left;verticalAlign=middle;spacingTop=-1;spacingLeft=3;spacingRight=3;rotatable=0;labelPosition=right;points=[];portConstraint=eastwest;strokeColor=inherit;" vertex="1" parent="IEjJDpaYbgT3tHdpPvTB-1">
          <mxGeometry y="52" width="340" height="8" as="geometry" />
        </mxCell>
        <mxCell id="IEjJDpaYbgT3tHdpPvTB-4" value="&lt;font style=&quot;font-size: 18px;&quot;&gt;+ getSize(): int&lt;br&gt;+isEmpty(): bool&lt;br&gt;+insert(index:int, value: Itemtype): void&lt;br&gt;+remove(index:int): void&lt;br&gt;+get(index:int): Itemtype&lt;br&gt;+display(): void&lt;br&gt;+isFull(): bool&lt;br&gt;+createList(size int): void&lt;/font&gt;" style="text;strokeColor=none;fillColor=none;align=left;verticalAlign=top;spacingLeft=4;spacingRight=4;overflow=hidden;rotatable=0;points=[[0,0.5],[1,0.5]];portConstraint=eastwest;whiteSpace=wrap;html=1;fontColor=#162b12;" vertex="1" parent="IEjJDpaYbgT3tHdpPvTB-1">
          <mxGeometry y="60" width="340" height="210" as="geometry" />
        </mxCell>
      </root>
    </mxGraphModel>
  </diagram>
</mxfile>
